<?xml version="1.0" standalone="no"?>
<!DOCTYPE svg PUBLIC "-//W3C//DTD SVG 20010904//EN"
 "http://www.w3.org/TR/2001/REC-SVG-20010904/DTD/svg10.dtd">
<svg version="1.0" xmlns="http://www.w3.org/2000/svg"
 width="451.000000pt" height="451.000000pt" viewBox="0 0 451.000000 451.000000"
 preserveAspectRatio="xMidYMid meet">
<metadata>
Created by potrace 1.11, written by Peter Selinger 2001-2013
</metadata>
<g transform="translate(0.000000,451.000000) scale(0.100000,-0.100000)"
fill="#000000" stroke="none">
<path d="M2085 4384 c-544 -57 -978 -259 -1344 -625 -330 -331 -535 -736 -608
-1200 -24 -157 -24 -461 0 -618 73 -470 280 -874 618 -1208 221 -217 445 -364
729 -477 246 -97 482 -140 770 -140 288 0 524 43 770 140 562 223 1002 663
1224 1224 97 247 139 476 140 765 0 293 -42 526 -140 775 -113 284 -260 508
-477 729 -331 335 -739 545 -1197 616 -102 15 -404 27 -485 19z m388 -449
c850 -111 1477 -827 1477 -1685 0 -602 -309 -1147 -826 -1460 -555 -336 -1281
-317 -1826 49 -469 315 -748 841 -748 1411 0 1031 900 1819 1923 1685z"/>
<path d="M2246 3533 c-3 -4 -6 -295 -6 -647 l0 -641 -451 -451 -451 -451 70
-61 c128 -110 264 -190 420 -246 259 -93 584 -93 844 0 369 132 676 445 798
814 60 178 78 435 46 621 -46 259 -169 493 -361 684 -198 199 -456 330 -711
364 -116 15 -191 20 -198 14z"/>
</g>
</svg>
